<?xml version="1.0" encoding="UTF-8" standalone="no"?>
<svg
   xmlns:dc="http://purl.org/dc/elements/1.1/"
   xmlns:cc="http://creativecommons.org/ns#"
   xmlns:rdf="http://www.w3.org/1999/02/22-rdf-syntax-ns#"
   xmlns:svg="http://www.w3.org/2000/svg"
   xmlns="http://www.w3.org/2000/svg"
   xmlns:sodipodi="http://sodipodi.sourceforge.net/DTD/sodipodi-0.dtd"
   xmlns:inkscape="http://www.inkscape.org/namespaces/inkscape"
   version="1.1"
   id="svg2"
   xml:space="preserve"
   width="335.04709"
   height="359.89291"
   viewBox="0 0 335.04709 359.89291"
   sodipodi:docname="aprox_plano.svg"
   inkscape:version="1.0.2 (1.0.2+r75+1)"><metadata
     id="metadata8"><rdf:RDF><cc:Work
         rdf:about=""><dc:format>image/svg+xml</dc:format><dc:type
           rdf:resource="http://purl.org/dc/dcmitype/StillImage" /><dc:title /></cc:Work></rdf:RDF></metadata><defs
     id="defs6" /><sodipodi:namedview
     pagecolor="#ffffff"
     bordercolor="#666666"
     borderopacity="1"
     objecttolerance="10"
     gridtolerance="10"
     guidetolerance="10"
     inkscape:pageopacity="0"
     inkscape:pageshadow="2"
     inkscape:window-width="1920"
     inkscape:window-height="1012"
     id="namedview4"
     showgrid="false"
     inkscape:zoom="1.8779554"
     inkscape:cx="39.358034"
     inkscape:cy="251.4589"
     inkscape:window-x="0"
     inkscape:window-y="0"
     inkscape:window-maximized="1"
     inkscape:current-layer="g220"
     inkscape:document-rotation="0"
     fit-margin-top="0"
     fit-margin-left="0"
     fit-margin-right="0"
     fit-margin-bottom="0" /><g
     id="g10"
     inkscape:groupmode="layer"
     inkscape:label="Layer"
     transform="matrix(1.3333333,0,0,-1.3333333,-127.06216,803.04986)"><g
       id="g12"><g
         id="g18"
         transform="translate(102.021,341.12601)"><path
           d="M 0,0 H 3.109"
           style="fill:none;stroke:#131413;stroke-width:0.493;stroke-linecap:butt;stroke-linejoin:miter;stroke-miterlimit:10;stroke-dasharray:none;stroke-opacity:1"
           id="path20" /><g
           id="g22"
           transform="translate(242.34801)"><path
             d="M 0,0 H -3.109"
             style="fill:none;stroke:#131413;stroke-width:0.493;stroke-linecap:butt;stroke-linejoin:miter;stroke-miterlimit:10;stroke-dasharray:none;stroke-opacity:1"
             id="path24" /></g></g><text
         transform="matrix(1,0,0,-1,94.905999,338.82101)"
         style="font-variant:normal;font-weight:normal;font-size:8px;font-family:BnvrnbGhfhjfArialMT;-inkscape-font-specification:BnvrnbGhfhjfArialMT;writing-mode:lr-tb;fill:#131413;fill-opacity:1;fill-rule:nonzero;stroke:none"
         id="text28"><tspan
           x="0"
           y="0"
           id="tspan26">0</tspan></text><g
         id="g30"
         transform="translate(102.021,384.04999)"><path
           d="M 0,0 H 3.109"
           style="fill:none;stroke:#131413;stroke-width:0.493;stroke-linecap:butt;stroke-linejoin:miter;stroke-miterlimit:10;stroke-dasharray:none;stroke-opacity:1"
           id="path32" /><g
           id="g34"
           transform="translate(242.34801)"><path
             d="M 0,0 H -3.109"
             style="fill:none;stroke:#131413;stroke-width:0.493;stroke-linecap:butt;stroke-linejoin:miter;stroke-miterlimit:10;stroke-dasharray:none;stroke-opacity:1"
             id="path36" /></g></g><text
         transform="matrix(1,0,0,-1,94.905999,381.7431)"
         style="font-variant:normal;font-weight:normal;font-size:8px;font-family:BnvrnbGhfhjfArialMT;-inkscape-font-specification:BnvrnbGhfhjfArialMT;writing-mode:lr-tb;fill:#131413;fill-opacity:1;fill-rule:nonzero;stroke:none"
         id="text40"><tspan
           x="0"
           y="0"
           id="tspan38">1</tspan></text><g
         id="g42"
         transform="translate(102.021,426.974)"><path
           d="M 0,0 H 3.109"
           style="fill:none;stroke:#131413;stroke-width:0.493;stroke-linecap:butt;stroke-linejoin:miter;stroke-miterlimit:10;stroke-dasharray:none;stroke-opacity:1"
           id="path44" /><g
           id="g46"
           transform="translate(242.34801)"><path
             d="M 0,0 H -3.109"
             style="fill:none;stroke:#131413;stroke-width:0.493;stroke-linecap:butt;stroke-linejoin:miter;stroke-miterlimit:10;stroke-dasharray:none;stroke-opacity:1"
             id="path48" /></g></g><text
         transform="matrix(1,0,0,-1,94.905999,424.66409)"
         style="font-variant:normal;font-weight:normal;font-size:8px;font-family:BnvrnbGhfhjfArialMT;-inkscape-font-specification:BnvrnbGhfhjfArialMT;writing-mode:lr-tb;fill:#131413;fill-opacity:1;fill-rule:nonzero;stroke:none"
         id="text52"><tspan
           x="0"
           y="0"
           id="tspan50">2</tspan></text><g
         id="g54"
         transform="translate(102.021,469.89801)"><path
           d="M 0,0 H 3.109"
           style="fill:none;stroke:#131413;stroke-width:0.493;stroke-linecap:butt;stroke-linejoin:miter;stroke-miterlimit:10;stroke-dasharray:none;stroke-opacity:1"
           id="path56" /><g
           id="g58"
           transform="translate(242.34801)"><path
             d="M 0,0 H -3.109"
             style="fill:none;stroke:#131413;stroke-width:0.493;stroke-linecap:butt;stroke-linejoin:miter;stroke-miterlimit:10;stroke-dasharray:none;stroke-opacity:1"
             id="path60" /></g></g><text
         transform="matrix(1,0,0,-1,94.905999,467.58511)"
         style="font-variant:normal;font-weight:normal;font-size:8px;font-family:BnvrnbGhfhjfArialMT;-inkscape-font-specification:BnvrnbGhfhjfArialMT;writing-mode:lr-tb;fill:#131413;fill-opacity:1;fill-rule:nonzero;stroke:none"
         id="text64"><tspan
           x="0"
           y="0"
           id="tspan62">3</tspan></text><g
         id="g66"
         transform="translate(102.021,512.82202)"><path
           d="M 0,0 H 3.109"
           style="fill:none;stroke:#131413;stroke-width:0.493;stroke-linecap:butt;stroke-linejoin:miter;stroke-miterlimit:10;stroke-dasharray:none;stroke-opacity:1"
           id="path68" /><g
           id="g70"
           transform="translate(242.34801)"><path
             d="M 0,0 H -3.109"
             style="fill:none;stroke:#131413;stroke-width:0.493;stroke-linecap:butt;stroke-linejoin:miter;stroke-miterlimit:10;stroke-dasharray:none;stroke-opacity:1"
             id="path72" /></g></g><text
         transform="matrix(1,0,0,-1,94.905999,510.50711)"
         style="font-variant:normal;font-weight:normal;font-size:8px;font-family:BnvrnbGhfhjfArialMT;-inkscape-font-specification:BnvrnbGhfhjfArialMT;writing-mode:lr-tb;fill:#131413;fill-opacity:1;fill-rule:nonzero;stroke:none"
         id="text76"><tspan
           x="0"
           y="0"
           id="tspan74">4</tspan></text><g
         id="g78"
         transform="translate(102.021,555.74597)"><path
           d="M 0,0 H 3.109"
           style="fill:none;stroke:#131413;stroke-width:0.493;stroke-linecap:butt;stroke-linejoin:miter;stroke-miterlimit:10;stroke-dasharray:none;stroke-opacity:1"
           id="path80" /><g
           id="g82"
           transform="translate(242.34801)"><path
             d="M 0,0 H -3.109"
             style="fill:none;stroke:#131413;stroke-width:0.493;stroke-linecap:butt;stroke-linejoin:miter;stroke-miterlimit:10;stroke-dasharray:none;stroke-opacity:1"
             id="path84" /></g></g><text
         transform="matrix(1,0,0,-1,94.905999,553.42853)"
         style="font-variant:normal;font-weight:normal;font-size:8px;font-family:BnvrnbGhfhjfArialMT;-inkscape-font-specification:BnvrnbGhfhjfArialMT;writing-mode:lr-tb;fill:#131413;fill-opacity:1;fill-rule:nonzero;stroke:none"
         id="text88"><tspan
           x="0"
           y="0"
           id="tspan86">5</tspan></text><g
         id="g90"
         transform="translate(102.021,598.67102)"><path
           d="M 0,0 H 3.109"
           style="fill:none;stroke:#131413;stroke-width:0.493;stroke-linecap:butt;stroke-linejoin:miter;stroke-miterlimit:10;stroke-dasharray:none;stroke-opacity:1"
           id="path92" /><g
           id="g94"
           transform="translate(242.34801)"><path
             d="M 0,0 H -3.109"
             style="fill:none;stroke:#131413;stroke-width:0.493;stroke-linecap:butt;stroke-linejoin:miter;stroke-miterlimit:10;stroke-dasharray:none;stroke-opacity:1"
             id="path96" /></g></g><text
         transform="matrix(1,0,0,-1,94.905999,596.34991)"
         style="font-variant:normal;font-weight:normal;font-size:8px;font-family:BnvrnbGhfhjfArialMT;-inkscape-font-specification:BnvrnbGhfhjfArialMT;writing-mode:lr-tb;fill:#131413;fill-opacity:1;fill-rule:nonzero;stroke:none"
         id="text100"><tspan
           x="0"
           y="0"
           id="tspan98">6</tspan></text><g
         id="g102"
         transform="translate(102.021,341.12601)"><path
           d="M 0,0 V 3.109"
           style="fill:none;stroke:#131413;stroke-width:0.493;stroke-linecap:butt;stroke-linejoin:miter;stroke-miterlimit:10;stroke-dasharray:none;stroke-opacity:1"
           id="path104" /><g
           id="g106"
           transform="translate(0,257.54501)"><path
             d="M 0,0 V -3.109"
             style="fill:none;stroke:#131413;stroke-width:0.493;stroke-linecap:butt;stroke-linejoin:miter;stroke-miterlimit:10;stroke-dasharray:none;stroke-opacity:1"
             id="path108" /></g></g><text
         transform="matrix(1,0,0,-1,99.662301,332.48099)"
         style="font-variant:normal;font-weight:normal;font-size:8px;font-family:BnvrnbGhfhjfArialMT;-inkscape-font-specification:BnvrnbGhfhjfArialMT;writing-mode:lr-tb;fill:#131413;fill-opacity:1;fill-rule:nonzero;stroke:none"
         id="text112"><tspan
           x="0"
           y="0"
           id="tspan110">0</tspan></text><g
         id="g114"
         transform="translate(142.429,341.12601)"><path
           d="M 0,0 V 3.109"
           style="fill:none;stroke:#131413;stroke-width:0.493;stroke-linecap:butt;stroke-linejoin:miter;stroke-miterlimit:10;stroke-dasharray:none;stroke-opacity:1"
           id="path116" /><g
           id="g118"
           transform="translate(0,257.54501)"><path
             d="M 0,0 V -3.109"
             style="fill:none;stroke:#131413;stroke-width:0.493;stroke-linecap:butt;stroke-linejoin:miter;stroke-miterlimit:10;stroke-dasharray:none;stroke-opacity:1"
             id="path120" /></g></g><text
         transform="matrix(1,0,0,-1,140.0681,332.48099)"
         style="font-variant:normal;font-weight:normal;font-size:8px;font-family:BnvrnbGhfhjfArialMT;-inkscape-font-specification:BnvrnbGhfhjfArialMT;writing-mode:lr-tb;fill:#131413;fill-opacity:1;fill-rule:nonzero;stroke:none"
         id="text124"><tspan
           x="0"
           y="0"
           id="tspan122">1</tspan></text><g
         id="g126"
         transform="translate(182.787,341.12601)"><path
           d="M 0,0 V 3.109"
           style="fill:none;stroke:#131413;stroke-width:0.493;stroke-linecap:butt;stroke-linejoin:miter;stroke-miterlimit:10;stroke-dasharray:none;stroke-opacity:1"
           id="path128" /><g
           id="g130"
           transform="translate(0,257.54501)"><path
             d="M 0,0 V -3.109"
             style="fill:none;stroke:#131413;stroke-width:0.493;stroke-linecap:butt;stroke-linejoin:miter;stroke-miterlimit:10;stroke-dasharray:none;stroke-opacity:1"
             id="path132" /></g></g><text
         transform="matrix(1,0,0,-1,180.42461,332.48099)"
         style="font-variant:normal;font-weight:normal;font-size:8px;font-family:BnvrnbGhfhjfArialMT;-inkscape-font-specification:BnvrnbGhfhjfArialMT;writing-mode:lr-tb;fill:#131413;fill-opacity:1;fill-rule:nonzero;stroke:none"
         id="text136"><tspan
           x="0"
           y="0"
           id="tspan134">2</tspan></text><g
         id="g138"
         transform="translate(223.19501,341.12601)"><path
           d="M 0,0 V 3.109"
           style="fill:none;stroke:#131413;stroke-width:0.493;stroke-linecap:butt;stroke-linejoin:miter;stroke-miterlimit:10;stroke-dasharray:none;stroke-opacity:1"
           id="path140" /><g
           id="g142"
           transform="translate(0,257.54501)"><path
             d="M 0,0 V -3.109"
             style="fill:none;stroke:#131413;stroke-width:0.493;stroke-linecap:butt;stroke-linejoin:miter;stroke-miterlimit:10;stroke-dasharray:none;stroke-opacity:1"
             id="path144" /></g></g><text
         transform="matrix(1,0,0,-1,220.829,332.48099)"
         style="font-variant:normal;font-weight:normal;font-size:8px;font-family:BnvrnbGhfhjfArialMT;-inkscape-font-specification:BnvrnbGhfhjfArialMT;writing-mode:lr-tb;fill:#131413;fill-opacity:1;fill-rule:nonzero;stroke:none"
         id="text148"><tspan
           x="0"
           y="0"
           id="tspan146">3</tspan></text><g
         id="g150"
         transform="translate(263.603,341.12601)"><path
           d="M 0,0 V 3.109"
           style="fill:none;stroke:#131413;stroke-width:0.493;stroke-linecap:butt;stroke-linejoin:miter;stroke-miterlimit:10;stroke-dasharray:none;stroke-opacity:1"
           id="path152" /><g
           id="g154"
           transform="translate(0,257.54501)"><path
             d="M 0,0 V -3.109"
             style="fill:none;stroke:#131413;stroke-width:0.493;stroke-linecap:butt;stroke-linejoin:miter;stroke-miterlimit:10;stroke-dasharray:none;stroke-opacity:1"
             id="path156" /></g></g><text
         transform="matrix(1,0,0,-1,261.23499,332.48099)"
         style="font-variant:normal;font-weight:normal;font-size:8px;font-family:BnvrnbGhfhjfArialMT;-inkscape-font-specification:BnvrnbGhfhjfArialMT;writing-mode:lr-tb;fill:#131413;fill-opacity:1;fill-rule:nonzero;stroke:none"
         id="text160"><tspan
           x="0"
           y="0"
           id="tspan158">4</tspan></text><g
         id="g162"
         transform="translate(303.961,341.12601)"><path
           d="M 0,0 V 3.109"
           style="fill:none;stroke:#131413;stroke-width:0.493;stroke-linecap:butt;stroke-linejoin:miter;stroke-miterlimit:10;stroke-dasharray:none;stroke-opacity:1"
           id="path164" /><g
           id="g166"
           transform="translate(0,257.54501)"><path
             d="M 0,0 V -3.109"
             style="fill:none;stroke:#131413;stroke-width:0.493;stroke-linecap:butt;stroke-linejoin:miter;stroke-miterlimit:10;stroke-dasharray:none;stroke-opacity:1"
             id="path168" /></g></g><text
         transform="matrix(1,0,0,-1,301.591,332.48099)"
         style="font-variant:normal;font-weight:normal;font-size:8px;font-family:BnvrnbGhfhjfArialMT;-inkscape-font-specification:BnvrnbGhfhjfArialMT;writing-mode:lr-tb;fill:#131413;fill-opacity:1;fill-rule:nonzero;stroke:none"
         id="text172"><tspan
           x="0"
           y="0"
           id="tspan170">5</tspan></text><g
         id="g174"
         transform="translate(344.36899,341.12601)"><path
           d="M 0,0 V 3.109"
           style="fill:none;stroke:#131413;stroke-width:0.493;stroke-linecap:butt;stroke-linejoin:miter;stroke-miterlimit:10;stroke-dasharray:none;stroke-opacity:1"
           id="path176" /><g
           id="g178"
           transform="translate(0,257.54501)"><path
             d="M 0,0 V -3.109"
             style="fill:none;stroke:#131413;stroke-width:0.493;stroke-linecap:butt;stroke-linejoin:miter;stroke-miterlimit:10;stroke-dasharray:none;stroke-opacity:1"
             id="path180" /></g></g><text
         transform="matrix(1,0,0,-1,341.996,332.48099)"
         style="font-variant:normal;font-weight:normal;font-size:8px;font-family:BnvrnbGhfhjfArialMT;-inkscape-font-specification:BnvrnbGhfhjfArialMT;writing-mode:lr-tb;fill:#131413;fill-opacity:1;fill-rule:nonzero;stroke:none"
         id="text184"><tspan
           x="0"
           y="0"
           id="tspan182">6</tspan></text><path
         d="M 102.021,341.12601 H 344.36901 V 598.67102 H 102.021 Z"
         style="fill:none;stroke:#131413;stroke-width:0.493;stroke-linecap:butt;stroke-linejoin:miter;stroke-miterlimit:10;stroke-dasharray:none;stroke-opacity:1"
         id="path186" /><text
         transform="matrix(1,0,0,-1,143.4115,360.98611)"
         style="font-variant:normal;font-weight:normal;font-size:7.9964px;font-family:BnvrnbGhfhjfArialMT;-inkscape-font-specification:BnvrnbGhfhjfArialMT;writing-mode:lr-tb;fill:#131413;fill-opacity:1;fill-rule:nonzero;stroke:none"
         id="text194"><tspan
           x="0 2.6628013 7.1087995 9.3317986 13.777797"
           y="0"
           sodipodi:role="line"
           id="tspan188">(a,b)</tspan><tspan
           x="80.761238 83.424042 87.870041 90.09304 94.53904"
           y="-194.5636"
           sodipodi:role="line"
           id="tspan190">(3,5)</tspan><tspan
           x="139.82825"
           y="-89.286201"
           id="tspan192">c</tspan></text><text
         transform="matrix(1,0,0,-1,287.23999,447.87311)"
         style="font-variant:normal;font-weight:normal;font-size:6.3971px;font-family:BnvrnbGhfhjfArialMT;-inkscape-font-specification:BnvrnbGhfhjfArialMT;writing-mode:lr-tb;fill:#131413;fill-opacity:1;fill-rule:nonzero;stroke:none"
         id="text198"><tspan
           x="0"
           y="0"
           id="tspan196">0</tspan></text><text
         transform="matrix(1,0,0,-1,290.79599,450.27209)"
         style="font-variant:normal;font-weight:normal;font-size:7.9964px;font-family:BnvrnbGhfhjfArialMT;-inkscape-font-specification:BnvrnbGhfhjfArialMT;writing-mode:lr-tb;fill:#131413;fill-opacity:1;fill-rule:nonzero;stroke:none"
         id="text202"><tspan
           x="0 2.6628013 7.1087995 9.3317986 13.777797"
           y="0"
           sodipodi:role="line"
           id="tspan200">(a,b)</tspan></text><g
         id="g204"
         transform="translate(138.235,362.341)"><path
           d="M 0,0 4.1939997,4.54 -1.727,2.714"
           style="fill:none;stroke:#131413;stroke-width:0.493;stroke-linecap:butt;stroke-linejoin:miter;stroke-miterlimit:10;stroke-dasharray:none;stroke-opacity:1"
           id="path206" /><g
           id="g208"
           transform="translate(-36.214001,-21.215)"><path
             d="M 0,0 40.408001,25.754999"
             style="fill:none;stroke:#131413;stroke-width:0.493;stroke-linecap:butt;stroke-linejoin:miter;stroke-miterlimit:10;stroke-dasharray:none;stroke-opacity:1"
             id="path210" /><g
             id="g212"
             transform="translate(36.214001,21.215)"><path
               d="M 0,0 4.1939997,4.54 -1.727,2.714"
               style="fill:none;stroke:#131413;stroke-width:0.493;stroke-linecap:butt;stroke-linejoin:miter;stroke-miterlimit:10;stroke-dasharray:none;stroke-opacity:1"
               id="path214" /><g
               id="g216"
               transform="translate(83.43,187.386)"><path
                 d="M 0,0 1.53,6.019 -2.812,1.628"
                 style="fill:none;stroke:#131413;stroke-width:0.493;stroke-linecap:butt;stroke-linejoin:miter;stroke-miterlimit:10;stroke-dasharray:none;stroke-opacity:1"
                 id="path218" /><g
                 id="g220"
                 transform="translate(-119.644,-208.601)"><path
                   d="M 0,0 121.174,214.62"
                   style="fill:none;stroke:#131413;stroke-width:0.493;stroke-linecap:butt;stroke-linejoin:miter;stroke-miterlimit:10;stroke-dasharray:none;stroke-opacity:1"
                   id="path222" /><g
                   id="g224"
                   transform="translate(119.644,208.601)"><path
                     d="M 0,0 1.53,6.019 -2.812,1.628"
                     style="fill:none;stroke:#131413;stroke-width:0.493;stroke-linecap:butt;stroke-linejoin:miter;stroke-miterlimit:10;stroke-dasharray:none;stroke-opacity:1"
                     id="path226" /><g
                     id="g228"
                     transform="translate(54.370998,-99.514999)"><path
                       d="M 0,0 4.1939997,4.539 -1.727,2.713"
                       style="fill:none;stroke:#131413;stroke-width:0.493;stroke-linecap:butt;stroke-linejoin:miter;stroke-miterlimit:10;stroke-dasharray:none;stroke-opacity:1"
                       id="path230" /><g
                       id="g232"
                       transform="translate(-174.015,-109.086)"><path
                         d="M 0,0 178.209,113.625"
                         style="fill:none;stroke:#131413;stroke-width:0.493;stroke-linecap:butt;stroke-linejoin:miter;stroke-miterlimit:10;stroke-dasharray:none;stroke-opacity:1"
                         id="path234" /><g
                         id="g236"
                         transform="translate(174.015,109.086)"><path
                           d="M 0,0 4.1939997,4.539 -1.727,2.713"
                           style="fill:none;stroke:#131413;stroke-width:0.493;stroke-linecap:butt;stroke-linejoin:miter;stroke-miterlimit:10;stroke-dasharray:none;stroke-opacity:1"
                           id="path238" /></g></g></g></g></g></g></g></g></g><path
         d="m 227.537,551.35498 -4.34199,4.39099 1.52899,-6.01898 m 55.50601,-94.97598 -57.035,100.99496"
         style="fill:none;stroke:#131413;stroke-width:0.3;stroke-linecap:butt;stroke-linejoin:miter;stroke-miterlimit:10;stroke-dasharray:0.98676, 1.4801;stroke-dashoffset:0;stroke-opacity:1"
         id="path240" /><g
         id="g242"
         transform="translate(227.537,551.35498)"><path
           d="M 0,0 -4.342,4.3909998 -2.8129999,-1.628"
           style="fill:none;stroke:#131413;stroke-width:0.3;stroke-linecap:butt;stroke-linejoin:miter;stroke-miterlimit:10;stroke-dasharray:none;stroke-opacity:1"
           id="path244" /></g><path
         d="m 102.021,341.12601 2.467,1.57898 2.418,1.53 2.466,1.578 2.418,1.578 2.467,1.53101 2.467,1.57901 2.417,1.52899 2.467,1.57901 2.467,1.578 2.417,1.52899 2.467,1.57999 2.418,1.57901 2.46699,1.52899 2.46701,1.57901 2.417,1.57901 2.46701,1.52799 2.418,1.58099 2.46699,1.52902 2.467,1.57801 2.417,1.57897 2.467,1.529 2.46699,1.57901 2.418,1.58001 2.46701,1.529 2.417,1.578 2.46701,1.57898 2.46699,1.53 2.418,1.57901 2.46601,1.52899 2.41799,1.57901 2.467,1.57901 2.466,1.52798 2.418,1.58002 2.467,1.57898 2.46699,1.52902 2.41701,1.57898 2.467,1.57901 2.41799,1.52899 2.46702,1.57901 2.46699,1.53 2.41699,1.578 2.46701,1.57999 2.418,1.52902 2.467,1.57798 2.46699,1.57901 2.41701,1.52999 2.467,1.57901 2.46701,1.57901 2.41699,1.529 2.468,1.578 2.41699,1.53 2.46701,1.57998 2.467,1.57801 2.418,1.52899 2.466,1.57901 2.467,1.57901 2.418,1.52899 2.46701,1.57999 2.41699,1.578 2.468,1.52902 2.466,1.57898 2.418,1.53 2.46601,1.57901 2.418,1.57901 2.46698,1.52899 2.46701,1.57801 2.41699,1.57998 2.46802,1.53 2.466,1.578 2.418,1.57801 2.466,1.53 2.418,1.57901 2.46698,1.52999 2.46802,1.57901 2.41699,1.57798 2.46701,1.53 2.41699,1.57901 2.46701,1.578 2.46698,1.53 2.418,1.578 2.46601,1.57901 2.46802,1.53 2.41699,1.57898 2.46698,1.52902 2.41702,1.57898 2.46698,1.57901 2.46701,1.52899 2.418,1.57901 2.466,1.57901 2.41901,1.52899 2.466,1.57901 2.46698,1.57898 2.417,1.52903 2.46701,1.57897 2.46701,1.53 2.418,1.57801 2.46698,1.57901 2.41803,1.53 2.46597,1.57901"
         style="fill:none;stroke:#131413;stroke-width:0.3;stroke-linecap:butt;stroke-linejoin:miter;stroke-miterlimit:10;stroke-dasharray:1.9735, 0.98676;stroke-dashoffset:0;stroke-opacity:1"
         id="path246" /><path
         d="M 102.021,341.12601 H 344.36901 V 598.67102 H 102.021 Z"
         style="fill:none;stroke:#131413;stroke-width:0.493;stroke-linecap:butt;stroke-linejoin:miter;stroke-miterlimit:10;stroke-dasharray:none;stroke-opacity:1"
         id="path248" /></g></g></svg>
