<?xml version="1.0" encoding="utf-8" standalone="no"?>
<!DOCTYPE svg PUBLIC "-//W3C//DTD SVG 1.1//EN"
  "http://www.w3.org/Graphics/SVG/1.1/DTD/svg11.dtd">
<!-- Created with matplotlib (https://matplotlib.org/) -->
<svg height="310.218125pt" version="1.1" viewBox="0 0 467.8 310.218125" width="467.8pt" xmlns="http://www.w3.org/2000/svg" xmlns:xlink="http://www.w3.org/1999/xlink">
 <defs>
  <style type="text/css">
*{stroke-linecap:butt;stroke-linejoin:round;}
  </style>
 </defs>
 <g id="figure_1">
  <g id="patch_1">
   <path d="M 0 310.218125 
L 467.8 310.218125 
L 467.8 0 
L 0 0 
z
" style="fill:none;"/>
  </g>
  <g id="axes_1">
   <g id="patch_2">
    <path d="M 10.7 148.318125 
L 213.609091 148.318125 
L 213.609091 22.318125 
L 10.7 22.318125 
z
" style="fill:none;"/>
   </g>
   <g id="matplotlib.axis_1"/>
   <g id="matplotlib.axis_2"/>
   <g id="LineCollection_1">
    <path clip-path="url(#p66d4716b91)" d="M 75.261983 117.153316 
L 75.261983 73.876394 
" style="fill:none;stroke:#969696;"/>
    <path clip-path="url(#p66d4716b91)" d="M 112.154545 117.153316 
L 112.154545 82.14155 
" style="fill:none;stroke:#969696;"/>
    <path clip-path="url(#p66d4716b91)" d="M 149.047107 117.153316 
L 149.047107 103.780011 
" style="fill:none;stroke:#969696;"/>
   </g>
   <g id="line2d_1">
    <path clip-path="url(#p66d4716b91)" d="M 19.92314 91.715779 
L 23.687688 89.524832 
L 27.452235 87.447416 
L 31.216782 85.492068 
L 34.981329 83.666822 
L 38.745876 81.97918 
L 42.510423 80.436076 
L 46.27497 79.043852 
L 50.039518 77.808227 
L 53.804065 76.734279 
L 57.568612 75.826422 
L 61.333159 75.088386 
L 65.097706 74.523204 
L 68.862253 74.133198 
L 72.6268 73.919971 
L 76.391348 73.884399 
L 80.155895 74.026628 
L 83.920442 74.346074 
L 87.684989 74.841424 
L 91.449536 75.510643 
L 95.214083 76.350981 
L 98.97863 77.358984 
L 102.743178 78.530511 
L 106.507725 79.860746 
L 110.272272 81.344226 
L 114.036819 82.974852 
L 117.801366 84.745925 
L 121.565913 86.650167 
L 125.33046 88.679753 
L 129.095008 90.826343 
L 132.859555 93.081116 
L 136.624102 95.434807 
L 140.388649 97.877743 
L 144.153196 100.399888 
L 147.917743 102.990876 
L 151.68229 105.64006 
L 155.446838 108.336555 
L 159.211385 111.069279 
L 162.975932 113.827005 
L 166.740479 116.598398 
L 170.505026 119.372073 
L 174.269573 122.136629 
L 178.03412 124.880709 
L 181.798668 127.593034 
L 185.563215 130.262461 
L 189.327762 132.878019 
L 193.092309 135.428962 
L 196.856856 137.904805 
L 200.621403 140.295377 
L 204.38595 142.590852 
" style="fill:none;stroke:#1f77b4;stroke-linecap:square;stroke-width:2;"/>
   </g>
   <g id="line2d_2">
    <path clip-path="url(#p66d4716b91)" d="M 19.92314 61.478659 
L 23.687688 62.322042 
L 27.452235 63.165425 
L 31.216782 64.008809 
L 34.981329 64.852192 
L 38.745876 65.695575 
L 42.510423 66.538959 
L 46.27497 67.382342 
L 50.039518 68.225725 
L 53.804065 69.069109 
L 57.568612 69.912492 
L 61.333159 70.755875 
L 65.097706 71.599259 
L 68.862253 72.442642 
L 72.6268 73.286025 
L 76.391348 74.129409 
L 80.155895 74.972792 
L 83.920442 75.816175 
L 87.684989 76.659559 
L 91.449536 77.502942 
L 95.214083 78.346325 
L 98.97863 79.189709 
L 102.743178 80.033092 
L 106.507725 80.876475 
L 110.272272 81.719859 
L 114.036819 82.563242 
L 117.801366 83.406625 
L 121.565913 84.250009 
L 125.33046 85.093392 
L 129.095008 85.936775 
L 132.859555 86.780159 
L 136.624102 87.623542 
L 140.388649 88.466925 
L 144.153196 89.310309 
L 147.917743 90.153692 
L 151.68229 90.997075 
L 155.446838 91.840459 
L 159.211385 92.683842 
L 162.975932 93.527225 
L 166.740479 94.370609 
L 170.505026 95.213992 
L 174.269573 96.057375 
L 178.03412 96.900759 
L 181.798668 97.744142 
L 185.563215 98.587525 
L 189.327762 99.430909 
L 193.092309 100.274292 
L 196.856856 101.117675 
L 200.621403 101.961059 
L 204.38595 102.804442 
" style="fill:none;stroke:#969696;stroke-linecap:square;"/>
   </g>
   <g id="line2d_3">
    <path clip-path="url(#p66d4716b91)" d="M 19.92314 28.045398 
L 23.687688 30.253404 
L 27.452235 32.46141 
L 31.216782 34.669416 
L 34.981329 36.877423 
L 38.745876 39.085429 
L 42.510423 41.293435 
L 46.27497 43.501441 
L 50.039518 45.709448 
L 53.804065 47.917454 
L 57.568612 50.12546 
L 61.333159 52.333466 
L 65.097706 54.541472 
L 68.862253 56.749479 
L 72.6268 58.957485 
L 76.391348 61.165491 
L 80.155895 63.373497 
L 83.920442 65.581504 
L 87.684989 67.78951 
L 91.449536 69.997516 
L 95.214083 72.205522 
L 98.97863 74.413529 
L 102.743178 76.621535 
L 106.507725 78.829541 
L 110.272272 81.037547 
L 114.036819 83.245553 
L 117.801366 85.45356 
L 121.565913 87.661566 
L 125.33046 89.869572 
L 129.095008 92.077578 
L 132.859555 94.285585 
L 136.624102 96.493591 
L 140.388649 98.701597 
L 144.153196 100.909603 
L 147.917743 103.117609 
L 151.68229 105.325616 
L 155.446838 107.533622 
L 159.211385 109.741628 
L 162.975932 111.949634 
L 166.740479 114.157641 
L 170.505026 116.365647 
L 174.269573 118.573653 
L 178.03412 120.781659 
L 181.798668 122.989666 
L 185.563215 125.197672 
L 189.327762 127.405678 
L 193.092309 129.613684 
L 196.856856 131.82169 
L 200.621403 134.029697 
L 204.38595 136.237703 
" style="fill:none;stroke:#969696;stroke-linecap:square;"/>
   </g>
   <g id="line2d_4">
    <path clip-path="url(#p66d4716b91)" d="M 19.92314 51.44868 
L 23.687688 52.974375 
L 27.452235 54.50007 
L 31.216782 56.025765 
L 34.981329 57.55146 
L 38.745876 59.077154 
L 42.510423 60.602849 
L 46.27497 62.128544 
L 50.039518 63.654239 
L 53.804065 65.179933 
L 57.568612 66.705628 
L 61.333159 68.231323 
L 65.097706 69.757018 
L 68.862253 71.282713 
L 72.6268 72.808407 
L 76.391348 74.334102 
L 80.155895 75.859797 
L 83.920442 77.385492 
L 87.684989 78.911186 
L 91.449536 80.436881 
L 95.214083 81.962576 
L 98.97863 83.488271 
L 102.743178 85.013966 
L 106.507725 86.53966 
L 110.272272 88.065355 
L 114.036819 89.59105 
L 117.801366 91.116745 
L 121.565913 92.642439 
L 125.33046 94.168134 
L 129.095008 95.693829 
L 132.859555 97.219524 
L 136.624102 98.745219 
L 140.388649 100.270913 
L 144.153196 101.796608 
L 147.917743 103.322303 
L 151.68229 104.847998 
L 155.446838 106.373692 
L 159.211385 107.899387 
L 162.975932 109.425082 
L 166.740479 110.950777 
L 170.505026 112.476472 
L 174.269573 114.002166 
L 178.03412 115.527861 
L 181.798668 117.053556 
L 185.563215 118.579251 
L 189.327762 120.104945 
L 193.092309 121.63064 
L 196.856856 123.156335 
L 200.621403 124.68203 
L 204.38595 126.207725 
" style="fill:none;stroke:#969696;stroke-linecap:square;"/>
   </g>
   <g id="line2d_5">
    <path clip-path="url(#p66d4716b91)" d="M 19.92314 42.184361 
L 23.687688 43.815267 
L 27.452235 45.446173 
L 31.216782 47.077078 
L 34.981329 48.707984 
L 38.745876 50.33889 
L 42.510423 51.969795 
L 46.27497 53.600701 
L 50.039518 55.231607 
L 53.804065 56.862512 
L 57.568612 58.493418 
L 61.333159 60.124324 
L 65.097706 61.755229 
L 68.862253 63.386135 
L 72.6268 65.017041 
L 76.391348 66.647946 
L 80.155895 68.278852 
L 83.920442 69.909758 
L 87.684989 71.540663 
L 91.449536 73.171569 
L 95.214083 74.802475 
L 98.97863 76.43338 
L 102.743178 78.064286 
L 106.507725 79.695192 
L 110.272272 81.326097 
L 114.036819 82.957003 
L 117.801366 84.587909 
L 121.565913 86.218814 
L 125.33046 87.84972 
L 129.095008 89.480626 
L 132.859555 91.111532 
L 136.624102 92.742437 
L 140.388649 94.373343 
L 144.153196 96.004249 
L 147.917743 97.635154 
L 151.68229 99.26606 
L 155.446838 100.896966 
L 159.211385 102.527871 
L 162.975932 104.158777 
L 166.740479 105.789683 
L 170.505026 107.420588 
L 174.269573 109.051494 
L 178.03412 110.6824 
L 181.798668 112.313305 
L 185.563215 113.944211 
L 189.327762 115.575117 
L 193.092309 117.206022 
L 196.856856 118.836928 
L 200.621403 120.467834 
L 204.38595 122.098739 
" style="fill:none;stroke:#ff7f0e;stroke-linecap:square;stroke-width:2;"/>
   </g>
   <g id="text_1">
    <!-- $x_0 - h$ -->
    <defs>
     <path d="M 60.015625 54.6875 
L 34.90625 27.875 
L 50.296875 0 
L 39.984375 0 
L 28.421875 21.6875 
L 8.296875 0 
L -2.59375 0 
L 24.3125 28.8125 
L 10.015625 54.6875 
L 20.3125 54.6875 
L 30.8125 34.90625 
L 49.125 54.6875 
z
" id="DejaVuSans-Oblique-120"/>
     <path d="M 31.78125 66.40625 
Q 24.171875 66.40625 20.328125 58.90625 
Q 16.5 51.421875 16.5 36.375 
Q 16.5 21.390625 20.328125 13.890625 
Q 24.171875 6.390625 31.78125 6.390625 
Q 39.453125 6.390625 43.28125 13.890625 
Q 47.125 21.390625 47.125 36.375 
Q 47.125 51.421875 43.28125 58.90625 
Q 39.453125 66.40625 31.78125 66.40625 
z
M 31.78125 74.21875 
Q 44.046875 74.21875 50.515625 64.515625 
Q 56.984375 54.828125 56.984375 36.375 
Q 56.984375 17.96875 50.515625 8.265625 
Q 44.046875 -1.421875 31.78125 -1.421875 
Q 19.53125 -1.421875 13.0625 8.265625 
Q 6.59375 17.96875 6.59375 36.375 
Q 6.59375 54.828125 13.0625 64.515625 
Q 19.53125 74.21875 31.78125 74.21875 
z
" id="DejaVuSans-48"/>
     <path d="M 10.59375 35.5 
L 73.1875 35.5 
L 73.1875 27.203125 
L 10.59375 27.203125 
z
" id="DejaVuSans-8722"/>
     <path d="M 55.71875 33.015625 
L 49.3125 0 
L 40.28125 0 
L 46.6875 32.671875 
Q 47.125 34.96875 47.359375 36.71875 
Q 47.609375 38.484375 47.609375 39.5 
Q 47.609375 43.609375 45.015625 45.890625 
Q 42.4375 48.1875 37.796875 48.1875 
Q 30.5625 48.1875 25.265625 43.296875 
Q 19.96875 38.421875 18.40625 30.328125 
L 12.5 0 
L 3.515625 0 
L 18.3125 75.984375 
L 27.296875 75.984375 
L 21.484375 46.09375 
Q 24.90625 50.6875 30.21875 53.34375 
Q 35.546875 56 41.40625 56 
Q 48.640625 56 52.609375 52.09375 
Q 56.59375 48.1875 56.59375 41.109375 
Q 56.59375 39.359375 56.375 37.359375 
Q 56.15625 35.359375 55.71875 33.015625 
z
" id="DejaVuSans-Oblique-104"/>
    </defs>
    <g transform="translate(60.611983 124.751753)scale(0.1 -0.1)">
     <use transform="translate(0 0.015625)" xlink:href="#DejaVuSans-Oblique-120"/>
     <use transform="translate(59.179688 -16.390625)scale(0.7)" xlink:href="#DejaVuSans-48"/>
     <use transform="translate(125.932617 0.015625)" xlink:href="#DejaVuSans-8722"/>
     <use transform="translate(229.204102 0.015625)" xlink:href="#DejaVuSans-Oblique-104"/>
    </g>
   </g>
   <g id="text_2">
    <!-- $x_0$ -->
    <g transform="translate(106.804545 124.751753)scale(0.1 -0.1)">
     <use transform="translate(0 0.3125)" xlink:href="#DejaVuSans-Oblique-120"/>
     <use transform="translate(59.179688 -16.09375)scale(0.7)" xlink:href="#DejaVuSans-48"/>
    </g>
   </g>
   <g id="text_3">
    <!-- $x_0 + h$ -->
    <defs>
     <path d="M 46 62.703125 
L 46 35.5 
L 73.1875 35.5 
L 73.1875 27.203125 
L 46 27.203125 
L 46 0 
L 37.796875 0 
L 37.796875 27.203125 
L 10.59375 27.203125 
L 10.59375 35.5 
L 37.796875 35.5 
L 37.796875 62.703125 
z
" id="DejaVuSans-43"/>
    </defs>
    <g transform="translate(134.397107 124.751753)scale(0.1 -0.1)">
     <use transform="translate(0 0.015625)" xlink:href="#DejaVuSans-Oblique-120"/>
     <use transform="translate(59.179688 -16.390625)scale(0.7)" xlink:href="#DejaVuSans-48"/>
     <use transform="translate(125.932617 0.015625)" xlink:href="#DejaVuSans-43"/>
     <use transform="translate(229.204102 0.015625)" xlink:href="#DejaVuSans-Oblique-104"/>
    </g>
   </g>
   <g id="text_4">
    <!-- Pendiente $u'(x_0)$ -->
    <defs>
     <path d="M 19.671875 64.796875 
L 19.671875 37.40625 
L 32.078125 37.40625 
Q 38.96875 37.40625 42.71875 40.96875 
Q 46.484375 44.53125 46.484375 51.125 
Q 46.484375 57.671875 42.71875 61.234375 
Q 38.96875 64.796875 32.078125 64.796875 
z
M 9.8125 72.90625 
L 32.078125 72.90625 
Q 44.34375 72.90625 50.609375 67.359375 
Q 56.890625 61.8125 56.890625 51.125 
Q 56.890625 40.328125 50.609375 34.8125 
Q 44.34375 29.296875 32.078125 29.296875 
L 19.671875 29.296875 
L 19.671875 0 
L 9.8125 0 
z
" id="DejaVuSans-80"/>
     <path d="M 56.203125 29.59375 
L 56.203125 25.203125 
L 14.890625 25.203125 
Q 15.484375 15.921875 20.484375 11.0625 
Q 25.484375 6.203125 34.421875 6.203125 
Q 39.59375 6.203125 44.453125 7.46875 
Q 49.3125 8.734375 54.109375 11.28125 
L 54.109375 2.78125 
Q 49.265625 0.734375 44.1875 -0.34375 
Q 39.109375 -1.421875 33.890625 -1.421875 
Q 20.796875 -1.421875 13.15625 6.1875 
Q 5.515625 13.8125 5.515625 26.8125 
Q 5.515625 40.234375 12.765625 48.109375 
Q 20.015625 56 32.328125 56 
Q 43.359375 56 49.78125 48.890625 
Q 56.203125 41.796875 56.203125 29.59375 
z
M 47.21875 32.234375 
Q 47.125 39.59375 43.09375 43.984375 
Q 39.0625 48.390625 32.421875 48.390625 
Q 24.90625 48.390625 20.390625 44.140625 
Q 15.875 39.890625 15.1875 32.171875 
z
" id="DejaVuSans-101"/>
     <path d="M 54.890625 33.015625 
L 54.890625 0 
L 45.90625 0 
L 45.90625 32.71875 
Q 45.90625 40.484375 42.875 44.328125 
Q 39.84375 48.1875 33.796875 48.1875 
Q 26.515625 48.1875 22.3125 43.546875 
Q 18.109375 38.921875 18.109375 30.90625 
L 18.109375 0 
L 9.078125 0 
L 9.078125 54.6875 
L 18.109375 54.6875 
L 18.109375 46.1875 
Q 21.34375 51.125 25.703125 53.5625 
Q 30.078125 56 35.796875 56 
Q 45.21875 56 50.046875 50.171875 
Q 54.890625 44.34375 54.890625 33.015625 
z
" id="DejaVuSans-110"/>
     <path d="M 45.40625 46.390625 
L 45.40625 75.984375 
L 54.390625 75.984375 
L 54.390625 0 
L 45.40625 0 
L 45.40625 8.203125 
Q 42.578125 3.328125 38.25 0.953125 
Q 33.9375 -1.421875 27.875 -1.421875 
Q 17.96875 -1.421875 11.734375 6.484375 
Q 5.515625 14.40625 5.515625 27.296875 
Q 5.515625 40.1875 11.734375 48.09375 
Q 17.96875 56 27.875 56 
Q 33.9375 56 38.25 53.625 
Q 42.578125 51.265625 45.40625 46.390625 
z
M 14.796875 27.296875 
Q 14.796875 17.390625 18.875 11.75 
Q 22.953125 6.109375 30.078125 6.109375 
Q 37.203125 6.109375 41.296875 11.75 
Q 45.40625 17.390625 45.40625 27.296875 
Q 45.40625 37.203125 41.296875 42.84375 
Q 37.203125 48.484375 30.078125 48.484375 
Q 22.953125 48.484375 18.875 42.84375 
Q 14.796875 37.203125 14.796875 27.296875 
z
" id="DejaVuSans-100"/>
     <path d="M 9.421875 54.6875 
L 18.40625 54.6875 
L 18.40625 0 
L 9.421875 0 
z
M 9.421875 75.984375 
L 18.40625 75.984375 
L 18.40625 64.59375 
L 9.421875 64.59375 
z
" id="DejaVuSans-105"/>
     <path d="M 18.3125 70.21875 
L 18.3125 54.6875 
L 36.8125 54.6875 
L 36.8125 47.703125 
L 18.3125 47.703125 
L 18.3125 18.015625 
Q 18.3125 11.328125 20.140625 9.421875 
Q 21.96875 7.515625 27.59375 7.515625 
L 36.8125 7.515625 
L 36.8125 0 
L 27.59375 0 
Q 17.1875 0 13.234375 3.875 
Q 9.28125 7.765625 9.28125 18.015625 
L 9.28125 47.703125 
L 2.6875 47.703125 
L 2.6875 54.6875 
L 9.28125 54.6875 
L 9.28125 70.21875 
z
" id="DejaVuSans-116"/>
     <path id="DejaVuSans-32"/>
     <path d="M 6.6875 21.6875 
L 13.09375 54.6875 
L 22.125 54.6875 
L 15.71875 22.015625 
Q 15.234375 19.625 15.015625 17.921875 
Q 14.796875 16.21875 14.796875 15.09375 
Q 14.796875 10.9375 17.328125 8.65625 
Q 19.875 6.390625 24.515625 6.390625 
Q 31.734375 6.390625 37 11.265625 
Q 42.28125 16.15625 43.890625 24.421875 
L 49.90625 54.6875 
L 58.890625 54.6875 
L 48.296875 0 
L 39.3125 0 
L 41.109375 8.59375 
Q 37.3125 3.8125 32.0625 1.1875 
Q 26.8125 -1.421875 20.90625 -1.421875 
Q 13.71875 -1.421875 9.71875 2.515625 
Q 5.71875 6.453125 5.71875 13.484375 
Q 5.71875 14.9375 5.953125 17.140625 
Q 6.203125 19.34375 6.6875 21.6875 
z
" id="DejaVuSans-Oblique-117"/>
     <path d="M 3.515625 5.421875 
Q 2.875 5.609375 2.875 6.390625 
L 15.09375 51.8125 
Q 15.671875 53.65625 17.078125 54.78125 
Q 18.5 55.90625 20.3125 55.90625 
Q 22.65625 55.90625 24.4375 54.359375 
Q 26.21875 52.828125 26.21875 50.484375 
Q 26.21875 49.46875 25.6875 48.1875 
L 7.625 4.984375 
Q 7.28125 4.296875 6.6875 4.296875 
Q 6.15625 4.296875 5 4.78125 
Q 3.859375 5.28125 3.515625 5.421875 
z
" id="Cmsy10-48"/>
     <path d="M 31 75.875 
Q 24.46875 64.65625 21.28125 53.65625 
Q 18.109375 42.671875 18.109375 31.390625 
Q 18.109375 20.125 21.3125 9.0625 
Q 24.515625 -2 31 -13.1875 
L 23.1875 -13.1875 
Q 15.875 -1.703125 12.234375 9.375 
Q 8.59375 20.453125 8.59375 31.390625 
Q 8.59375 42.28125 12.203125 53.3125 
Q 15.828125 64.359375 23.1875 75.875 
z
" id="DejaVuSans-40"/>
     <path d="M 8.015625 75.875 
L 15.828125 75.875 
Q 23.140625 64.359375 26.78125 53.3125 
Q 30.421875 42.28125 30.421875 31.390625 
Q 30.421875 20.453125 26.78125 9.375 
Q 23.140625 -1.703125 15.828125 -13.1875 
L 8.015625 -13.1875 
Q 14.5 -2 17.703125 9.0625 
Q 20.90625 20.125 20.90625 31.390625 
Q 20.90625 42.671875 17.703125 53.65625 
Q 14.5 64.65625 8.015625 75.875 
z
" id="DejaVuSans-41"/>
    </defs>
    <g transform="translate(63.614545 16.318125)scale(0.12 -0.12)">
     <use transform="translate(0 0.584375)" xlink:href="#DejaVuSans-80"/>
     <use transform="translate(60.302734 0.584375)" xlink:href="#DejaVuSans-101"/>
     <use transform="translate(121.826172 0.584375)" xlink:href="#DejaVuSans-110"/>
     <use transform="translate(185.205078 0.584375)" xlink:href="#DejaVuSans-100"/>
     <use transform="translate(248.681641 0.584375)" xlink:href="#DejaVuSans-105"/>
     <use transform="translate(276.464844 0.584375)" xlink:href="#DejaVuSans-101"/>
     <use transform="translate(337.988281 0.584375)" xlink:href="#DejaVuSans-110"/>
     <use transform="translate(401.367188 0.584375)" xlink:href="#DejaVuSans-116"/>
     <use transform="translate(440.576172 0.584375)" xlink:href="#DejaVuSans-101"/>
     <use transform="translate(502.099609 0.584375)" xlink:href="#DejaVuSans-32"/>
     <use transform="translate(533.886719 0.584375)" xlink:href="#DejaVuSans-Oblique-117"/>
     <use transform="translate(601.731771 38.865625)scale(0.7)" xlink:href="#Cmsy10-48"/>
     <use transform="translate(623.70931 0.584375)" xlink:href="#DejaVuSans-40"/>
     <use transform="translate(662.722982 0.584375)" xlink:href="#DejaVuSans-Oblique-120"/>
     <use transform="translate(721.902669 -15.821875)scale(0.7)" xlink:href="#DejaVuSans-48"/>
     <use transform="translate(769.173177 0.584375)" xlink:href="#DejaVuSans-41"/>
    </g>
   </g>
   <g id="line2d_6">
    <defs>
     <path d="M 0 3 
C 0.795609 3 1.55874 2.683901 2.12132 2.12132 
C 2.683901 1.55874 3 0.795609 3 0 
C 3 -0.795609 2.683901 -1.55874 2.12132 -2.12132 
C 1.55874 -2.683901 0.795609 -3 0 -3 
C -0.795609 -3 -1.55874 -2.683901 -2.12132 -2.12132 
C -2.683901 -1.55874 -3 -0.795609 -3 0 
C -3 0.795609 -2.683901 1.55874 -2.12132 2.12132 
C -1.55874 2.683901 -0.795609 3 0 3 
z
" id="m6018514a66" style="stroke:#000000;"/>
    </defs>
    <g clip-path="url(#p66d4716b91)">
     <use style="stroke:#000000;" x="75.261983" xlink:href="#m6018514a66" y="73.876394"/>
     <use style="stroke:#000000;" x="112.154545" xlink:href="#m6018514a66" y="82.14155"/>
     <use style="stroke:#000000;" x="149.047107" xlink:href="#m6018514a66" y="103.780011"/>
    </g>
   </g>
  </g>
  <g id="axes_2">
   <g id="patch_3">
    <path d="M 254.190909 148.318125 
L 457.1 148.318125 
L 457.1 22.318125 
L 254.190909 22.318125 
z
" style="fill:none;"/>
   </g>
   <g id="matplotlib.axis_3"/>
   <g id="matplotlib.axis_4"/>
   <g id="LineCollection_2">
    <path clip-path="url(#p0465edfd48)" d="M 318.752893 117.153316 
L 318.752893 73.876394 
" style="fill:none;stroke:#969696;"/>
    <path clip-path="url(#p0465edfd48)" d="M 355.645455 117.153316 
L 355.645455 82.14155 
" style="fill:none;stroke:#969696;"/>
    <path clip-path="url(#p0465edfd48)" d="M 392.538017 117.153316 
L 392.538017 103.780011 
" style="fill:none;stroke:#969696;"/>
   </g>
   <g id="line2d_7">
    <path clip-path="url(#p0465edfd48)" d="M 263.41405 91.715779 
L 267.178597 89.524832 
L 270.943144 87.447416 
L 274.707691 85.492068 
L 278.472238 83.666822 
L 282.236785 81.97918 
L 286.001332 80.436076 
L 289.76588 79.043852 
L 293.530427 77.808227 
L 297.294974 76.734279 
L 301.059521 75.826422 
L 304.824068 75.088386 
L 308.588615 74.523204 
L 312.353162 74.133198 
L 316.11771 73.919971 
L 319.882257 73.884399 
L 323.646804 74.026628 
L 327.411351 74.346074 
L 331.175898 74.841424 
L 334.940445 75.510643 
L 338.704992 76.350981 
L 342.46954 77.358984 
L 346.234087 78.530511 
L 349.998634 79.860746 
L 353.763181 81.344226 
L 357.527728 82.974852 
L 361.292275 84.745925 
L 365.056822 86.650167 
L 368.82137 88.679753 
L 372.585917 90.826343 
L 376.350464 93.081116 
L 380.115011 95.434807 
L 383.879558 97.877743 
L 387.644105 100.399888 
L 391.408652 102.990876 
L 395.1732 105.64006 
L 398.937747 108.336555 
L 402.702294 111.069279 
L 406.466841 113.827005 
L 410.231388 116.598398 
L 413.995935 119.372073 
L 417.760482 122.136629 
L 421.52503 124.880709 
L 425.289577 127.593034 
L 429.054124 130.262461 
L 432.818671 132.878019 
L 436.583218 135.428962 
L 440.347765 137.904805 
L 444.112312 140.295377 
L 447.87686 142.590852 
" style="fill:none;stroke:#1f77b4;stroke-linecap:square;stroke-width:2;"/>
   </g>
   <g id="line2d_8">
    <path clip-path="url(#p0465edfd48)" d="M 263.41405 42.184361 
L 267.178597 43.815267 
L 270.943144 45.446173 
L 274.707691 47.077078 
L 278.472238 48.707984 
L 282.236785 50.33889 
L 286.001332 51.969795 
L 289.76588 53.600701 
L 293.530427 55.231607 
L 297.294974 56.862512 
L 301.059521 58.493418 
L 304.824068 60.124324 
L 308.588615 61.755229 
L 312.353162 63.386135 
L 316.11771 65.017041 
L 319.882257 66.647946 
L 323.646804 68.278852 
L 327.411351 69.909758 
L 331.175898 71.540663 
L 334.940445 73.171569 
L 338.704992 74.802475 
L 342.46954 76.43338 
L 346.234087 78.064286 
L 349.998634 79.695192 
L 353.763181 81.326097 
L 357.527728 82.957003 
L 361.292275 84.587909 
L 365.056822 86.218814 
L 368.82137 87.84972 
L 372.585917 89.480626 
L 376.350464 91.111532 
L 380.115011 92.742437 
L 383.879558 94.373343 
L 387.644105 96.004249 
L 391.408652 97.635154 
L 395.1732 99.26606 
L 398.937747 100.896966 
L 402.702294 102.527871 
L 406.466841 104.158777 
L 410.231388 105.789683 
L 413.995935 107.420588 
L 417.760482 109.051494 
L 421.52503 110.6824 
L 425.289577 112.313305 
L 429.054124 113.944211 
L 432.818671 115.575117 
L 436.583218 117.206022 
L 440.347765 118.836928 
L 444.112312 120.467834 
L 447.87686 122.098739 
" style="fill:none;stroke:#969696;stroke-linecap:square;"/>
   </g>
   <g id="line2d_9">
    <path clip-path="url(#p0465edfd48)" d="M 263.41405 28.045398 
L 267.178597 30.253404 
L 270.943144 32.46141 
L 274.707691 34.669416 
L 278.472238 36.877423 
L 282.236785 39.085429 
L 286.001332 41.293435 
L 289.76588 43.501441 
L 293.530427 45.709448 
L 297.294974 47.917454 
L 301.059521 50.12546 
L 304.824068 52.333466 
L 308.588615 54.541472 
L 312.353162 56.749479 
L 316.11771 58.957485 
L 319.882257 61.165491 
L 323.646804 63.373497 
L 327.411351 65.581504 
L 331.175898 67.78951 
L 334.940445 69.997516 
L 338.704992 72.205522 
L 342.46954 74.413529 
L 346.234087 76.621535 
L 349.998634 78.829541 
L 353.763181 81.037547 
L 357.527728 83.245553 
L 361.292275 85.45356 
L 365.056822 87.661566 
L 368.82137 89.869572 
L 372.585917 92.077578 
L 376.350464 94.285585 
L 380.115011 96.493591 
L 383.879558 98.701597 
L 387.644105 100.909603 
L 391.408652 103.117609 
L 395.1732 105.325616 
L 398.937747 107.533622 
L 402.702294 109.741628 
L 406.466841 111.949634 
L 410.231388 114.157641 
L 413.995935 116.365647 
L 417.760482 118.573653 
L 421.52503 120.781659 
L 425.289577 122.989666 
L 429.054124 125.197672 
L 432.818671 127.405678 
L 436.583218 129.613684 
L 440.347765 131.82169 
L 444.112312 134.029697 
L 447.87686 136.237703 
" style="fill:none;stroke:#969696;stroke-linecap:square;"/>
   </g>
   <g id="line2d_10">
    <path clip-path="url(#p0465edfd48)" d="M 263.41405 51.44868 
L 267.178597 52.974375 
L 270.943144 54.50007 
L 274.707691 56.025765 
L 278.472238 57.55146 
L 282.236785 59.077154 
L 286.001332 60.602849 
L 289.76588 62.128544 
L 293.530427 63.654239 
L 297.294974 65.179933 
L 301.059521 66.705628 
L 304.824068 68.231323 
L 308.588615 69.757018 
L 312.353162 71.282713 
L 316.11771 72.808407 
L 319.882257 74.334102 
L 323.646804 75.859797 
L 327.411351 77.385492 
L 331.175898 78.911186 
L 334.940445 80.436881 
L 338.704992 81.962576 
L 342.46954 83.488271 
L 346.234087 85.013966 
L 349.998634 86.53966 
L 353.763181 88.065355 
L 357.527728 89.59105 
L 361.292275 91.116745 
L 365.056822 92.642439 
L 368.82137 94.168134 
L 372.585917 95.693829 
L 376.350464 97.219524 
L 380.115011 98.745219 
L 383.879558 100.270913 
L 387.644105 101.796608 
L 391.408652 103.322303 
L 395.1732 104.847998 
L 398.937747 106.373692 
L 402.702294 107.899387 
L 406.466841 109.425082 
L 410.231388 110.950777 
L 413.995935 112.476472 
L 417.760482 114.002166 
L 421.52503 115.527861 
L 425.289577 117.053556 
L 429.054124 118.579251 
L 432.818671 120.104945 
L 436.583218 121.63064 
L 440.347765 123.156335 
L 444.112312 124.68203 
L 447.87686 126.207725 
" style="fill:none;stroke:#969696;stroke-linecap:square;"/>
   </g>
   <g id="line2d_11">
    <path clip-path="url(#p0465edfd48)" d="M 263.41405 61.478659 
L 267.178597 62.322042 
L 270.943144 63.165425 
L 274.707691 64.008809 
L 278.472238 64.852192 
L 282.236785 65.695575 
L 286.001332 66.538959 
L 289.76588 67.382342 
L 293.530427 68.225725 
L 297.294974 69.069109 
L 301.059521 69.912492 
L 304.824068 70.755875 
L 308.588615 71.599259 
L 312.353162 72.442642 
L 316.11771 73.286025 
L 319.882257 74.129409 
L 323.646804 74.972792 
L 327.411351 75.816175 
L 331.175898 76.659559 
L 334.940445 77.502942 
L 338.704992 78.346325 
L 342.46954 79.189709 
L 346.234087 80.033092 
L 349.998634 80.876475 
L 353.763181 81.719859 
L 357.527728 82.563242 
L 361.292275 83.406625 
L 365.056822 84.250009 
L 368.82137 85.093392 
L 372.585917 85.936775 
L 376.350464 86.780159 
L 380.115011 87.623542 
L 383.879558 88.466925 
L 387.644105 89.310309 
L 391.408652 90.153692 
L 395.1732 90.997075 
L 398.937747 91.840459 
L 402.702294 92.683842 
L 406.466841 93.527225 
L 410.231388 94.370609 
L 413.995935 95.213992 
L 417.760482 96.057375 
L 421.52503 96.900759 
L 425.289577 97.744142 
L 429.054124 98.587525 
L 432.818671 99.430909 
L 436.583218 100.274292 
L 440.347765 101.117675 
L 444.112312 101.961059 
L 447.87686 102.804442 
" style="fill:none;stroke:#ff7f0e;stroke-linecap:square;stroke-width:2;"/>
   </g>
   <g id="text_5">
    <!-- $x_0 - h$ -->
    <g transform="translate(304.102893 124.751753)scale(0.1 -0.1)">
     <use transform="translate(0 0.015625)" xlink:href="#DejaVuSans-Oblique-120"/>
     <use transform="translate(59.179688 -16.390625)scale(0.7)" xlink:href="#DejaVuSans-48"/>
     <use transform="translate(125.932617 0.015625)" xlink:href="#DejaVuSans-8722"/>
     <use transform="translate(229.204102 0.015625)" xlink:href="#DejaVuSans-Oblique-104"/>
    </g>
   </g>
   <g id="text_6">
    <!-- $x_0$ -->
    <g transform="translate(350.295455 124.751753)scale(0.1 -0.1)">
     <use transform="translate(0 0.3125)" xlink:href="#DejaVuSans-Oblique-120"/>
     <use transform="translate(59.179688 -16.09375)scale(0.7)" xlink:href="#DejaVuSans-48"/>
    </g>
   </g>
   <g id="text_7">
    <!-- $x_0 + h$ -->
    <g transform="translate(377.888017 124.751753)scale(0.1 -0.1)">
     <use transform="translate(0 0.015625)" xlink:href="#DejaVuSans-Oblique-120"/>
     <use transform="translate(59.179688 -16.390625)scale(0.7)" xlink:href="#DejaVuSans-48"/>
     <use transform="translate(125.932617 0.015625)" xlink:href="#DejaVuSans-43"/>
     <use transform="translate(229.204102 0.015625)" xlink:href="#DejaVuSans-Oblique-104"/>
    </g>
   </g>
   <g id="text_8">
    <!-- Pendiente $D_{-}u(x)$ -->
    <defs>
     <path d="M 16.890625 72.90625 
L 38.09375 72.90625 
Q 54.984375 72.90625 63.59375 65.75 
Q 72.21875 58.59375 72.21875 44.484375 
Q 72.21875 35.15625 68.9375 26.53125 
Q 65.671875 17.921875 59.90625 12.015625 
Q 54.109375 5.953125 45.171875 2.96875 
Q 36.234375 0 24.03125 0 
L 2.6875 0 
z
M 25.203125 64.796875 
L 14.203125 8.109375 
L 27.09375 8.109375 
Q 43.65625 8.109375 52.734375 17.625 
Q 61.8125 27.15625 61.8125 44.484375 
Q 61.8125 54.984375 55.953125 59.890625 
Q 50.09375 64.796875 37.59375 64.796875 
z
" id="DejaVuSans-Oblique-68"/>
    </defs>
    <g transform="translate(303.265455 16.318125)scale(0.12 -0.12)">
     <use transform="translate(0 0.015625)" xlink:href="#DejaVuSans-80"/>
     <use transform="translate(60.302734 0.015625)" xlink:href="#DejaVuSans-101"/>
     <use transform="translate(121.826172 0.015625)" xlink:href="#DejaVuSans-110"/>
     <use transform="translate(185.205078 0.015625)" xlink:href="#DejaVuSans-100"/>
     <use transform="translate(248.681641 0.015625)" xlink:href="#DejaVuSans-105"/>
     <use transform="translate(276.464844 0.015625)" xlink:href="#DejaVuSans-101"/>
     <use transform="translate(337.988281 0.015625)" xlink:href="#DejaVuSans-110"/>
     <use transform="translate(401.367188 0.015625)" xlink:href="#DejaVuSans-116"/>
     <use transform="translate(440.576172 0.015625)" xlink:href="#DejaVuSans-101"/>
     <use transform="translate(502.099609 0.015625)" xlink:href="#DejaVuSans-32"/>
     <use transform="translate(533.886719 0.015625)" xlink:href="#DejaVuSans-Oblique-68"/>
     <use transform="translate(610.888672 -16.390625)scale(0.7)" xlink:href="#DejaVuSans-8722"/>
     <use transform="translate(672.275391 0.015625)" xlink:href="#DejaVuSans-Oblique-117"/>
     <use transform="translate(735.654297 0.015625)" xlink:href="#DejaVuSans-40"/>
     <use transform="translate(774.667969 0.015625)" xlink:href="#DejaVuSans-Oblique-120"/>
     <use transform="translate(833.847656 0.015625)" xlink:href="#DejaVuSans-41"/>
    </g>
   </g>
   <g id="line2d_12">
    <g clip-path="url(#p0465edfd48)">
     <use style="stroke:#000000;" x="318.752893" xlink:href="#m6018514a66" y="73.876394"/>
     <use style="stroke:#000000;" x="355.645455" xlink:href="#m6018514a66" y="82.14155"/>
     <use style="stroke:#000000;" x="392.538017" xlink:href="#m6018514a66" y="103.780011"/>
    </g>
   </g>
  </g>
  <g id="axes_3">
   <g id="patch_4">
    <path d="M 10.7 299.518125 
L 213.609091 299.518125 
L 213.609091 173.518125 
L 10.7 173.518125 
z
" style="fill:none;"/>
   </g>
   <g id="matplotlib.axis_5"/>
   <g id="matplotlib.axis_6"/>
   <g id="LineCollection_3">
    <path clip-path="url(#p7539625b20)" d="M 75.261983 268.353316 
L 75.261983 225.076394 
" style="fill:none;stroke:#969696;"/>
    <path clip-path="url(#p7539625b20)" d="M 112.154545 268.353316 
L 112.154545 233.34155 
" style="fill:none;stroke:#969696;"/>
    <path clip-path="url(#p7539625b20)" d="M 149.047107 268.353316 
L 149.047107 254.980011 
" style="fill:none;stroke:#969696;"/>
   </g>
   <g id="line2d_13">
    <path clip-path="url(#p7539625b20)" d="M 19.92314 242.915779 
L 23.687688 240.724832 
L 27.452235 238.647416 
L 31.216782 236.692068 
L 34.981329 234.866822 
L 38.745876 233.17918 
L 42.510423 231.636076 
L 46.27497 230.243852 
L 50.039518 229.008227 
L 53.804065 227.934279 
L 57.568612 227.026422 
L 61.333159 226.288386 
L 65.097706 225.723204 
L 68.862253 225.333198 
L 72.6268 225.119971 
L 76.391348 225.084399 
L 80.155895 225.226628 
L 83.920442 225.546074 
L 87.684989 226.041424 
L 91.449536 226.710643 
L 95.214083 227.550981 
L 98.97863 228.558984 
L 102.743178 229.730511 
L 106.507725 231.060746 
L 110.272272 232.544226 
L 114.036819 234.174852 
L 117.801366 235.945925 
L 121.565913 237.850167 
L 125.33046 239.879753 
L 129.095008 242.026343 
L 132.859555 244.281116 
L 136.624102 246.634807 
L 140.388649 249.077743 
L 144.153196 251.599888 
L 147.917743 254.190876 
L 151.68229 256.84006 
L 155.446838 259.536555 
L 159.211385 262.269279 
L 162.975932 265.027005 
L 166.740479 267.798398 
L 170.505026 270.572073 
L 174.269573 273.336629 
L 178.03412 276.080709 
L 181.798668 278.793034 
L 185.563215 281.462461 
L 189.327762 284.078019 
L 193.092309 286.628962 
L 196.856856 289.104805 
L 200.621403 291.495377 
L 204.38595 293.790852 
" style="fill:none;stroke:#1f77b4;stroke-linecap:square;stroke-width:2;"/>
   </g>
   <g id="line2d_14">
    <path clip-path="url(#p7539625b20)" d="M 19.92314 193.384361 
L 23.687688 195.015267 
L 27.452235 196.646173 
L 31.216782 198.277078 
L 34.981329 199.907984 
L 38.745876 201.53889 
L 42.510423 203.169795 
L 46.27497 204.800701 
L 50.039518 206.431607 
L 53.804065 208.062512 
L 57.568612 209.693418 
L 61.333159 211.324324 
L 65.097706 212.955229 
L 68.862253 214.586135 
L 72.6268 216.217041 
L 76.391348 217.847946 
L 80.155895 219.478852 
L 83.920442 221.109758 
L 87.684989 222.740663 
L 91.449536 224.371569 
L 95.214083 226.002475 
L 98.97863 227.63338 
L 102.743178 229.264286 
L 106.507725 230.895192 
L 110.272272 232.526097 
L 114.036819 234.157003 
L 117.801366 235.787909 
L 121.565913 237.418814 
L 125.33046 239.04972 
L 129.095008 240.680626 
L 132.859555 242.311532 
L 136.624102 243.942437 
L 140.388649 245.573343 
L 144.153196 247.204249 
L 147.917743 248.835154 
L 151.68229 250.46606 
L 155.446838 252.096966 
L 159.211385 253.727871 
L 162.975932 255.358777 
L 166.740479 256.989683 
L 170.505026 258.620588 
L 174.269573 260.251494 
L 178.03412 261.8824 
L 181.798668 263.513305 
L 185.563215 265.144211 
L 189.327762 266.775117 
L 193.092309 268.406022 
L 196.856856 270.036928 
L 200.621403 271.667834 
L 204.38595 273.298739 
" style="fill:none;stroke:#969696;stroke-linecap:square;"/>
   </g>
   <g id="line2d_15">
    <path clip-path="url(#p7539625b20)" d="M 19.92314 212.678659 
L 23.687688 213.522042 
L 27.452235 214.365425 
L 31.216782 215.208809 
L 34.981329 216.052192 
L 38.745876 216.895575 
L 42.510423 217.738959 
L 46.27497 218.582342 
L 50.039518 219.425725 
L 53.804065 220.269109 
L 57.568612 221.112492 
L 61.333159 221.955875 
L 65.097706 222.799259 
L 68.862253 223.642642 
L 72.6268 224.486025 
L 76.391348 225.329409 
L 80.155895 226.172792 
L 83.920442 227.016175 
L 87.684989 227.859559 
L 91.449536 228.702942 
L 95.214083 229.546325 
L 98.97863 230.389709 
L 102.743178 231.233092 
L 106.507725 232.076475 
L 110.272272 232.919859 
L 114.036819 233.763242 
L 117.801366 234.606625 
L 121.565913 235.450009 
L 125.33046 236.293392 
L 129.095008 237.136775 
L 132.859555 237.980159 
L 136.624102 238.823542 
L 140.388649 239.666925 
L 144.153196 240.510309 
L 147.917743 241.353692 
L 151.68229 242.197075 
L 155.446838 243.040459 
L 159.211385 243.883842 
L 162.975932 244.727225 
L 166.740479 245.570609 
L 170.505026 246.413992 
L 174.269573 247.257375 
L 178.03412 248.100759 
L 181.798668 248.944142 
L 185.563215 249.787525 
L 189.327762 250.630909 
L 193.092309 251.474292 
L 196.856856 252.317675 
L 200.621403 253.161059 
L 204.38595 254.004442 
" style="fill:none;stroke:#969696;stroke-linecap:square;"/>
   </g>
   <g id="line2d_16">
    <path clip-path="url(#p7539625b20)" d="M 19.92314 202.64868 
L 23.687688 204.174375 
L 27.452235 205.70007 
L 31.216782 207.225765 
L 34.981329 208.75146 
L 38.745876 210.277154 
L 42.510423 211.802849 
L 46.27497 213.328544 
L 50.039518 214.854239 
L 53.804065 216.379933 
L 57.568612 217.905628 
L 61.333159 219.431323 
L 65.097706 220.957018 
L 68.862253 222.482713 
L 72.6268 224.008407 
L 76.391348 225.534102 
L 80.155895 227.059797 
L 83.920442 228.585492 
L 87.684989 230.111186 
L 91.449536 231.636881 
L 95.214083 233.162576 
L 98.97863 234.688271 
L 102.743178 236.213966 
L 106.507725 237.73966 
L 110.272272 239.265355 
L 114.036819 240.79105 
L 117.801366 242.316745 
L 121.565913 243.842439 
L 125.33046 245.368134 
L 129.095008 246.893829 
L 132.859555 248.419524 
L 136.624102 249.945219 
L 140.388649 251.470913 
L 144.153196 252.996608 
L 147.917743 254.522303 
L 151.68229 256.047998 
L 155.446838 257.573692 
L 159.211385 259.099387 
L 162.975932 260.625082 
L 166.740479 262.150777 
L 170.505026 263.676472 
L 174.269573 265.202166 
L 178.03412 266.727861 
L 181.798668 268.253556 
L 185.563215 269.779251 
L 189.327762 271.304945 
L 193.092309 272.83064 
L 196.856856 274.356335 
L 200.621403 275.88203 
L 204.38595 277.407725 
" style="fill:none;stroke:#969696;stroke-linecap:square;"/>
   </g>
   <g id="line2d_17">
    <path clip-path="url(#p7539625b20)" d="M 19.92314 179.245398 
L 23.687688 181.453404 
L 27.452235 183.66141 
L 31.216782 185.869416 
L 34.981329 188.077423 
L 38.745876 190.285429 
L 42.510423 192.493435 
L 46.27497 194.701441 
L 50.039518 196.909448 
L 53.804065 199.117454 
L 57.568612 201.32546 
L 61.333159 203.533466 
L 65.097706 205.741472 
L 68.862253 207.949479 
L 72.6268 210.157485 
L 76.391348 212.365491 
L 80.155895 214.573497 
L 83.920442 216.781504 
L 87.684989 218.98951 
L 91.449536 221.197516 
L 95.214083 223.405522 
L 98.97863 225.613529 
L 102.743178 227.821535 
L 106.507725 230.029541 
L 110.272272 232.237547 
L 114.036819 234.445553 
L 117.801366 236.65356 
L 121.565913 238.861566 
L 125.33046 241.069572 
L 129.095008 243.277578 
L 132.859555 245.485585 
L 136.624102 247.693591 
L 140.388649 249.901597 
L 144.153196 252.109603 
L 147.917743 254.317609 
L 151.68229 256.525616 
L 155.446838 258.733622 
L 159.211385 260.941628 
L 162.975932 263.149634 
L 166.740479 265.357641 
L 170.505026 267.565647 
L 174.269573 269.773653 
L 178.03412 271.981659 
L 181.798668 274.189666 
L 185.563215 276.397672 
L 189.327762 278.605678 
L 193.092309 280.813684 
L 196.856856 283.02169 
L 200.621403 285.229697 
L 204.38595 287.437703 
" style="fill:none;stroke:#ff7f0e;stroke-linecap:square;stroke-width:2;"/>
   </g>
   <g id="text_9">
    <!-- $x_0 - h$ -->
    <g transform="translate(60.611983 275.951753)scale(0.1 -0.1)">
     <use transform="translate(0 0.015625)" xlink:href="#DejaVuSans-Oblique-120"/>
     <use transform="translate(59.179688 -16.390625)scale(0.7)" xlink:href="#DejaVuSans-48"/>
     <use transform="translate(125.932617 0.015625)" xlink:href="#DejaVuSans-8722"/>
     <use transform="translate(229.204102 0.015625)" xlink:href="#DejaVuSans-Oblique-104"/>
    </g>
   </g>
   <g id="text_10">
    <!-- $x_0$ -->
    <g transform="translate(106.804545 275.951753)scale(0.1 -0.1)">
     <use transform="translate(0 0.3125)" xlink:href="#DejaVuSans-Oblique-120"/>
     <use transform="translate(59.179688 -16.09375)scale(0.7)" xlink:href="#DejaVuSans-48"/>
    </g>
   </g>
   <g id="text_11">
    <!-- $x_0 + h$ -->
    <g transform="translate(134.397107 275.951753)scale(0.1 -0.1)">
     <use transform="translate(0 0.015625)" xlink:href="#DejaVuSans-Oblique-120"/>
     <use transform="translate(59.179688 -16.390625)scale(0.7)" xlink:href="#DejaVuSans-48"/>
     <use transform="translate(125.932617 0.015625)" xlink:href="#DejaVuSans-43"/>
     <use transform="translate(229.204102 0.015625)" xlink:href="#DejaVuSans-Oblique-104"/>
    </g>
   </g>
   <g id="text_12">
    <!-- Pendiente $D_{+}(x)$ -->
    <g transform="translate(63.554545 167.518125)scale(0.12 -0.12)">
     <use transform="translate(0 0.015625)" xlink:href="#DejaVuSans-80"/>
     <use transform="translate(60.302734 0.015625)" xlink:href="#DejaVuSans-101"/>
     <use transform="translate(121.826172 0.015625)" xlink:href="#DejaVuSans-110"/>
     <use transform="translate(185.205078 0.015625)" xlink:href="#DejaVuSans-100"/>
     <use transform="translate(248.681641 0.015625)" xlink:href="#DejaVuSans-105"/>
     <use transform="translate(276.464844 0.015625)" xlink:href="#DejaVuSans-101"/>
     <use transform="translate(337.988281 0.015625)" xlink:href="#DejaVuSans-110"/>
     <use transform="translate(401.367188 0.015625)" xlink:href="#DejaVuSans-116"/>
     <use transform="translate(440.576172 0.015625)" xlink:href="#DejaVuSans-101"/>
     <use transform="translate(502.099609 0.015625)" xlink:href="#DejaVuSans-32"/>
     <use transform="translate(533.886719 0.015625)" xlink:href="#DejaVuSans-Oblique-68"/>
     <use transform="translate(610.888672 -16.390625)scale(0.7)" xlink:href="#DejaVuSans-43"/>
     <use transform="translate(672.275391 0.015625)" xlink:href="#DejaVuSans-40"/>
     <use transform="translate(711.289062 0.015625)" xlink:href="#DejaVuSans-Oblique-120"/>
     <use transform="translate(770.46875 0.015625)" xlink:href="#DejaVuSans-41"/>
    </g>
   </g>
   <g id="line2d_18">
    <g clip-path="url(#p7539625b20)">
     <use style="stroke:#000000;" x="75.261983" xlink:href="#m6018514a66" y="225.076394"/>
     <use style="stroke:#000000;" x="112.154545" xlink:href="#m6018514a66" y="233.34155"/>
     <use style="stroke:#000000;" x="149.047107" xlink:href="#m6018514a66" y="254.980011"/>
    </g>
   </g>
  </g>
  <g id="axes_4">
   <g id="patch_5">
    <path d="M 254.190909 299.518125 
L 457.1 299.518125 
L 457.1 173.518125 
L 254.190909 173.518125 
z
" style="fill:none;"/>
   </g>
   <g id="matplotlib.axis_7"/>
   <g id="matplotlib.axis_8"/>
   <g id="LineCollection_4">
    <path clip-path="url(#p634cbfb7a3)" d="M 318.752893 268.353316 
L 318.752893 225.076394 
" style="fill:none;stroke:#969696;"/>
    <path clip-path="url(#p634cbfb7a3)" d="M 355.645455 268.353316 
L 355.645455 233.34155 
" style="fill:none;stroke:#969696;"/>
    <path clip-path="url(#p634cbfb7a3)" d="M 392.538017 268.353316 
L 392.538017 254.980011 
" style="fill:none;stroke:#969696;"/>
   </g>
   <g id="line2d_19">
    <path clip-path="url(#p634cbfb7a3)" d="M 263.41405 242.915779 
L 267.178597 240.724832 
L 270.943144 238.647416 
L 274.707691 236.692068 
L 278.472238 234.866822 
L 282.236785 233.17918 
L 286.001332 231.636076 
L 289.76588 230.243852 
L 293.530427 229.008227 
L 297.294974 227.934279 
L 301.059521 227.026422 
L 304.824068 226.288386 
L 308.588615 225.723204 
L 312.353162 225.333198 
L 316.11771 225.119971 
L 319.882257 225.084399 
L 323.646804 225.226628 
L 327.411351 225.546074 
L 331.175898 226.041424 
L 334.940445 226.710643 
L 338.704992 227.550981 
L 342.46954 228.558984 
L 346.234087 229.730511 
L 349.998634 231.060746 
L 353.763181 232.544226 
L 357.527728 234.174852 
L 361.292275 235.945925 
L 365.056822 237.850167 
L 368.82137 239.879753 
L 372.585917 242.026343 
L 376.350464 244.281116 
L 380.115011 246.634807 
L 383.879558 249.077743 
L 387.644105 251.599888 
L 391.408652 254.190876 
L 395.1732 256.84006 
L 398.937747 259.536555 
L 402.702294 262.269279 
L 406.466841 265.027005 
L 410.231388 267.798398 
L 413.995935 270.572073 
L 417.760482 273.336629 
L 421.52503 276.080709 
L 425.289577 278.793034 
L 429.054124 281.462461 
L 432.818671 284.078019 
L 436.583218 286.628962 
L 440.347765 289.104805 
L 444.112312 291.495377 
L 447.87686 293.790852 
" style="fill:none;stroke:#1f77b4;stroke-linecap:square;stroke-width:2;"/>
   </g>
   <g id="line2d_20">
    <path clip-path="url(#p634cbfb7a3)" d="M 263.41405 193.384361 
L 267.178597 195.015267 
L 270.943144 196.646173 
L 274.707691 198.277078 
L 278.472238 199.907984 
L 282.236785 201.53889 
L 286.001332 203.169795 
L 289.76588 204.800701 
L 293.530427 206.431607 
L 297.294974 208.062512 
L 301.059521 209.693418 
L 304.824068 211.324324 
L 308.588615 212.955229 
L 312.353162 214.586135 
L 316.11771 216.217041 
L 319.882257 217.847946 
L 323.646804 219.478852 
L 327.411351 221.109758 
L 331.175898 222.740663 
L 334.940445 224.371569 
L 338.704992 226.002475 
L 342.46954 227.63338 
L 346.234087 229.264286 
L 349.998634 230.895192 
L 353.763181 232.526097 
L 357.527728 234.157003 
L 361.292275 235.787909 
L 365.056822 237.418814 
L 368.82137 239.04972 
L 372.585917 240.680626 
L 376.350464 242.311532 
L 380.115011 243.942437 
L 383.879558 245.573343 
L 387.644105 247.204249 
L 391.408652 248.835154 
L 395.1732 250.46606 
L 398.937747 252.096966 
L 402.702294 253.727871 
L 406.466841 255.358777 
L 410.231388 256.989683 
L 413.995935 258.620588 
L 417.760482 260.251494 
L 421.52503 261.8824 
L 425.289577 263.513305 
L 429.054124 265.144211 
L 432.818671 266.775117 
L 436.583218 268.406022 
L 440.347765 270.036928 
L 444.112312 271.667834 
L 447.87686 273.298739 
" style="fill:none;stroke:#969696;stroke-linecap:square;"/>
   </g>
   <g id="line2d_21">
    <path clip-path="url(#p634cbfb7a3)" d="M 263.41405 212.678659 
L 267.178597 213.522042 
L 270.943144 214.365425 
L 274.707691 215.208809 
L 278.472238 216.052192 
L 282.236785 216.895575 
L 286.001332 217.738959 
L 289.76588 218.582342 
L 293.530427 219.425725 
L 297.294974 220.269109 
L 301.059521 221.112492 
L 304.824068 221.955875 
L 308.588615 222.799259 
L 312.353162 223.642642 
L 316.11771 224.486025 
L 319.882257 225.329409 
L 323.646804 226.172792 
L 327.411351 227.016175 
L 331.175898 227.859559 
L 334.940445 228.702942 
L 338.704992 229.546325 
L 342.46954 230.389709 
L 346.234087 231.233092 
L 349.998634 232.076475 
L 353.763181 232.919859 
L 357.527728 233.763242 
L 361.292275 234.606625 
L 365.056822 235.450009 
L 368.82137 236.293392 
L 372.585917 237.136775 
L 376.350464 237.980159 
L 380.115011 238.823542 
L 383.879558 239.666925 
L 387.644105 240.510309 
L 391.408652 241.353692 
L 395.1732 242.197075 
L 398.937747 243.040459 
L 402.702294 243.883842 
L 406.466841 244.727225 
L 410.231388 245.570609 
L 413.995935 246.413992 
L 417.760482 247.257375 
L 421.52503 248.100759 
L 425.289577 248.944142 
L 429.054124 249.787525 
L 432.818671 250.630909 
L 436.583218 251.474292 
L 440.347765 252.317675 
L 444.112312 253.161059 
L 447.87686 254.004442 
" style="fill:none;stroke:#969696;stroke-linecap:square;"/>
   </g>
   <g id="line2d_22">
    <path clip-path="url(#p634cbfb7a3)" d="M 263.41405 179.245398 
L 267.178597 181.453404 
L 270.943144 183.66141 
L 274.707691 185.869416 
L 278.472238 188.077423 
L 282.236785 190.285429 
L 286.001332 192.493435 
L 289.76588 194.701441 
L 293.530427 196.909448 
L 297.294974 199.117454 
L 301.059521 201.32546 
L 304.824068 203.533466 
L 308.588615 205.741472 
L 312.353162 207.949479 
L 316.11771 210.157485 
L 319.882257 212.365491 
L 323.646804 214.573497 
L 327.411351 216.781504 
L 331.175898 218.98951 
L 334.940445 221.197516 
L 338.704992 223.405522 
L 342.46954 225.613529 
L 346.234087 227.821535 
L 349.998634 230.029541 
L 353.763181 232.237547 
L 357.527728 234.445553 
L 361.292275 236.65356 
L 365.056822 238.861566 
L 368.82137 241.069572 
L 372.585917 243.277578 
L 376.350464 245.485585 
L 380.115011 247.693591 
L 383.879558 249.901597 
L 387.644105 252.109603 
L 391.408652 254.317609 
L 395.1732 256.525616 
L 398.937747 258.733622 
L 402.702294 260.941628 
L 406.466841 263.149634 
L 410.231388 265.357641 
L 413.995935 267.565647 
L 417.760482 269.773653 
L 421.52503 271.981659 
L 425.289577 274.189666 
L 429.054124 276.397672 
L 432.818671 278.605678 
L 436.583218 280.813684 
L 440.347765 283.02169 
L 444.112312 285.229697 
L 447.87686 287.437703 
" style="fill:none;stroke:#969696;stroke-linecap:square;"/>
   </g>
   <g id="line2d_23">
    <path clip-path="url(#p634cbfb7a3)" d="M 263.41405 202.64868 
L 267.178597 204.174375 
L 270.943144 205.70007 
L 274.707691 207.225765 
L 278.472238 208.75146 
L 282.236785 210.277154 
L 286.001332 211.802849 
L 289.76588 213.328544 
L 293.530427 214.854239 
L 297.294974 216.379933 
L 301.059521 217.905628 
L 304.824068 219.431323 
L 308.588615 220.957018 
L 312.353162 222.482713 
L 316.11771 224.008407 
L 319.882257 225.534102 
L 323.646804 227.059797 
L 327.411351 228.585492 
L 331.175898 230.111186 
L 334.940445 231.636881 
L 338.704992 233.162576 
L 342.46954 234.688271 
L 346.234087 236.213966 
L 349.998634 237.73966 
L 353.763181 239.265355 
L 357.527728 240.79105 
L 361.292275 242.316745 
L 365.056822 243.842439 
L 368.82137 245.368134 
L 372.585917 246.893829 
L 376.350464 248.419524 
L 380.115011 249.945219 
L 383.879558 251.470913 
L 387.644105 252.996608 
L 391.408652 254.522303 
L 395.1732 256.047998 
L 398.937747 257.573692 
L 402.702294 259.099387 
L 406.466841 260.625082 
L 410.231388 262.150777 
L 413.995935 263.676472 
L 417.760482 265.202166 
L 421.52503 266.727861 
L 425.289577 268.253556 
L 429.054124 269.779251 
L 432.818671 271.304945 
L 436.583218 272.83064 
L 440.347765 274.356335 
L 444.112312 275.88203 
L 447.87686 277.407725 
" style="fill:none;stroke:#ff7f0e;stroke-linecap:square;stroke-width:2;"/>
   </g>
   <g id="text_13">
    <!-- $x_0 - h$ -->
    <g transform="translate(304.102893 275.951753)scale(0.1 -0.1)">
     <use transform="translate(0 0.015625)" xlink:href="#DejaVuSans-Oblique-120"/>
     <use transform="translate(59.179688 -16.390625)scale(0.7)" xlink:href="#DejaVuSans-48"/>
     <use transform="translate(125.932617 0.015625)" xlink:href="#DejaVuSans-8722"/>
     <use transform="translate(229.204102 0.015625)" xlink:href="#DejaVuSans-Oblique-104"/>
    </g>
   </g>
   <g id="text_14">
    <!-- $x_0$ -->
    <g transform="translate(350.295455 275.951753)scale(0.1 -0.1)">
     <use transform="translate(0 0.3125)" xlink:href="#DejaVuSans-Oblique-120"/>
     <use transform="translate(59.179688 -16.09375)scale(0.7)" xlink:href="#DejaVuSans-48"/>
    </g>
   </g>
   <g id="text_15">
    <!-- $x_0 + h$ -->
    <g transform="translate(377.888017 275.951753)scale(0.1 -0.1)">
     <use transform="translate(0 0.015625)" xlink:href="#DejaVuSans-Oblique-120"/>
     <use transform="translate(59.179688 -16.390625)scale(0.7)" xlink:href="#DejaVuSans-48"/>
     <use transform="translate(125.932617 0.015625)" xlink:href="#DejaVuSans-43"/>
     <use transform="translate(229.204102 0.015625)" xlink:href="#DejaVuSans-Oblique-104"/>
    </g>
   </g>
   <g id="text_16">
    <!-- Pendiente $D_{0} u(x)$ -->
    <g transform="translate(304.105455 167.518125)scale(0.12 -0.12)">
     <use transform="translate(0 0.015625)" xlink:href="#DejaVuSans-80"/>
     <use transform="translate(60.302734 0.015625)" xlink:href="#DejaVuSans-101"/>
     <use transform="translate(121.826172 0.015625)" xlink:href="#DejaVuSans-110"/>
     <use transform="translate(185.205078 0.015625)" xlink:href="#DejaVuSans-100"/>
     <use transform="translate(248.681641 0.015625)" xlink:href="#DejaVuSans-105"/>
     <use transform="translate(276.464844 0.015625)" xlink:href="#DejaVuSans-101"/>
     <use transform="translate(337.988281 0.015625)" xlink:href="#DejaVuSans-110"/>
     <use transform="translate(401.367188 0.015625)" xlink:href="#DejaVuSans-116"/>
     <use transform="translate(440.576172 0.015625)" xlink:href="#DejaVuSans-101"/>
     <use transform="translate(502.099609 0.015625)" xlink:href="#DejaVuSans-32"/>
     <use transform="translate(533.886719 0.015625)" xlink:href="#DejaVuSans-Oblique-68"/>
     <use transform="translate(610.888672 -16.390625)scale(0.7)" xlink:href="#DejaVuSans-48"/>
     <use transform="translate(658.15918 0.015625)" xlink:href="#DejaVuSans-Oblique-117"/>
     <use transform="translate(721.538086 0.015625)" xlink:href="#DejaVuSans-40"/>
     <use transform="translate(760.551758 0.015625)" xlink:href="#DejaVuSans-Oblique-120"/>
     <use transform="translate(819.731445 0.015625)" xlink:href="#DejaVuSans-41"/>
    </g>
   </g>
   <g id="line2d_24">
    <g clip-path="url(#p634cbfb7a3)">
     <use style="stroke:#000000;" x="318.752893" xlink:href="#m6018514a66" y="225.076394"/>
     <use style="stroke:#000000;" x="355.645455" xlink:href="#m6018514a66" y="233.34155"/>
     <use style="stroke:#000000;" x="392.538017" xlink:href="#m6018514a66" y="254.980011"/>
    </g>
   </g>
  </g>
 </g>
 <defs>
  <clipPath id="p66d4716b91">
   <rect height="126" width="202.909091" x="10.7" y="22.318125"/>
  </clipPath>
  <clipPath id="p0465edfd48">
   <rect height="126" width="202.909091" x="254.190909" y="22.318125"/>
  </clipPath>
  <clipPath id="p7539625b20">
   <rect height="126" width="202.909091" x="10.7" y="173.518125"/>
  </clipPath>
  <clipPath id="p634cbfb7a3">
   <rect height="126" width="202.909091" x="254.190909" y="173.518125"/>
  </clipPath>
 </defs>
</svg>
